Coordinates
version=1
nRows=10
nColumns=23
inDegrees=yes

Units are S.I. units (second, meters, Newtons, ...)
Angles are in degrees.

endheader
time	thorax_tilt	thorax_list	thorax_rotation	thorax_tx	thorax_ty	thorax_tz	sternoclavicular_r2	sternoclavicular_r3	unrotscap_r3	unrotscap_r2	acromioclavicular_r2	acromioclavicular_r3	acromioclavicular_r1	unrothum_r1	unrothum_r3	unrothum_r2	elv_angle	shoulder_elv	shoulder1_r2	shoulder_rot	elbow_flexion	pro_sup
      4.11600000	     -2.37310173	      0.35593022	     -1.76019748	     -0.40132763	      1.58351508	      0.04761139	    -15.83081962	      6.70350322	     -6.70497831	     15.82925164	     -3.20507209	     25.90197390	     11.64315217	    -11.64302732	    -25.90236280	      3.20500354	     70.39911745	     65.41032517	    -70.39913255	     20.03553002	     88.46681217	      2.49155366
      4.12000000	     -2.36131361	      0.34004555	     -1.74550368	     -0.40041548	      1.58432465	      0.04737635	    -15.83384107	      6.70480520	     -6.70637273	     15.83240461	     -3.20572940	     25.90729207	     11.64562511	    -11.64518848	    -25.90732507	      3.20560906	     70.40077103	     65.42359423	    -70.40073234	     20.03817425	     88.46147548	      2.49113249
      4.12400000	     -2.45307164	      0.34528945	     -1.41532161	     -0.40172654	      1.58326836	      0.04707686	    -16.04790191	      6.79537483	     -6.79693668	     16.04636608	     -3.24897945	     26.25711535	     11.80280662	    -11.80272345	    -26.25767843	      3.24900288	     70.26255411	     66.30737009	    -70.26249641	     20.06827427	     87.06195609	      2.35076365
      4.12800000	     -2.44166984	      0.33136785	     -1.40188342	     -0.40080673	      1.58407386	      0.04687927	    -16.05070301	      6.79662318	     -6.79824529	     16.04925929	     -3.24962412	     26.26208193	     11.80512447	    -11.80469874	    -26.26223802	      3.24952734	     70.26427530	     66.31959502	    -70.26422684	     20.07000855	     87.05774101	      2.35022542
      4.13200000	     -2.50965536	      0.37001768	     -1.10053558	     -0.40186789	      1.58330145	      0.04661130	    -16.24032345	      6.87689180	     -6.87846107	     16.23887238	     -3.28795061	     26.57210162	     11.94436956	    -11.94430505	    -26.57270856	      3.28800434	     70.15157880	     67.10273351	    -70.15150264	     20.09309114	     85.79892549	      2.20013130
      4.13600000	     -2.54700707	      0.17375452	     -1.02429789	     -0.40154536	      1.58293467	      0.04621711	    -16.30870659	      6.90576236	     -6.90757205	     16.30719011	     -3.30183354	     26.68397810	     11.99482651	    -11.99445949	    -26.68453886	      3.30177394	     70.06439931	     67.38545325	    -70.06453209	     20.18376571	     85.34270520	      2.14452231
      4.14000000	     -2.53499100	      0.16422393	     -1.00952095	     -0.40061034	      1.58374175	      0.04604402	    -16.31145867	      6.90698254	     -6.90883665	     16.31010171	     -3.30241755	     26.68885006	     11.99707916	    -11.99646849	    -26.68910881	      3.30234769	     70.06731700	     67.39738790	    -70.06734291	     20.18311389	     85.33659833	      2.14362628
      4.14400000	     -2.46434953	      0.13715241	     -0.59719121	     -0.40215563	      1.58325168	      0.04584786	    -16.43914840	      6.96101586	     -6.96265688	     16.43717039	     -3.32845415	     26.89711036	     12.09046623	    -12.09036452	    -26.89760884	      3.32789685	     70.02885347	     67.92362916	    -70.02900720	     20.04246763	     83.93591279	      2.03143791
      4.14800000	     -2.45271442	      0.12697253	     -0.58624577	     -0.40122655	      1.58405087	      0.04567210	    -16.44189855	      6.96226061	     -6.96397428	     16.44032955	     -3.32891755	     26.90214286	     12.09284541	    -12.09242395	    -26.90237184	      3.32863041	     70.03039730	     67.93595012	    -70.03045020	     20.04184041	     83.93036882	      2.03060017
      4.15200000	     -2.43227722	     -0.01052413	     -0.32043910	     -0.40218576	      1.58308181	      0.04511710	    -16.58443470	      7.02268257	     -7.02434896	     16.58283303	     -3.35784522	     27.13532691	     12.19760413	    -12.19743916	    -27.13587048	      3.35744037	     69.89703358	     68.52522395	    -69.89714014	     19.99914422	     82.57938194	      1.92881227
